<?xml version="1.0" encoding="utf-8"?>
<!-- Generator: Adobe Illustrator 22.0.0, SVG Export Plug-In . SVG Version: 6.00 Build 0)  -->
<svg version="1.1" id="Layer_1" xmlns="http://www.w3.org/2000/svg" xmlns:xlink="http://www.w3.org/1999/xlink" x="0px" y="0px"
	 viewBox="0 0 136 2142" xml:space="preserve">
<g>
	<path d="M465.1,1242.5c-1.9-0.3-3.8-0.5-5.7-0.8c-9.1-1.5-17.5-5-25.5-9.5c-8.4-4.7-16.2-10.2-23.1-17.1c-2.4-2.4-4-5.3-5.7-8.1
		c-6.6-11.1-11.4-22.9-13.4-35.8c-0.6-4-1-7.9-1-11.9c0-54,0-108.1,0-162.1c0-1.6-0.5-2.9-1.5-4.2c-3.4-4.1-7.6-7.4-11.7-10.8
		c-6.1-5.1-12.8-9.3-19.4-13.6c-2.5-1.7-4.9-3.4-7.2-5.4c-0.5-0.5-1-1-1.4-1.6c-0.4-0.8-0.3-1.2,0.7-1.3c1.5-0.1,2.9,0.3,4.4,0.6
		c8.2,2.2,16.1,5.3,23.9,8.4c8.6,3.4,17.2,7,25.7,10.5c0.5,0.2,1,0.5,1.6,0.6c6.7,1.7,11.2,6.3,15.2,11.5c0.9,1.1,1.5,2.4,1.6,4
		c0.6,0,1-0.5,1.5-0.7c9.1-5.3,18.5-9.8,28.7-12.5c16.7-4.3,32.8-2.4,48.1,5.2c22.5,11.1,36.8,29.3,43.3,53.2
		c8,29.3,2.8,56.5-16.1,80.5c-12.1,15.3-28,24.6-47.3,27.9c-11.8,2-23.2,0.5-34.4-3.7c-8.6-3.2-16.9-6.9-24.9-11.1
		c-0.2-0.1-0.4-0.2-0.8-0.4c0,0.5-0.1,0.9-0.1,1.4c0,8-0.1,16.1,0.1,24.1c0.3,13.5,4.7,25.7,13.7,35.9c6.3,7.1,14.1,12.3,23.4,14.8
		c15.6,4.1,29.1,0,40.9-10.6c3.3-3,6-6.4,8.5-10.1c5.5-8.1,14.3-8.9,21.1-5.6c6.6,3.3,9.6,11.3,7.4,18.4c-1.5,4.9-4.6,8.6-7.8,12.3
		c-10.9,12.4-24.2,21.1-40.2,25.5c-3.7,1-7.4,1.7-11.2,2.1c-0.2,0-0.5,0-0.6,0.2C472.3,1242.5,468.7,1242.5,465.1,1242.5z
		 M517,1065.5c0.1-3.9-0.3-7.8-1-11.7c-2.5-12.9-8.3-23.9-18.6-32.2c-11.5-9.2-24.6-12.5-38.9-8.8c-12.8,3.3-22.4,11.2-29.3,22.3
		c-7.1,11.5-9.5,24-7.9,37.4c1.9,15.6,8.8,28.5,21.6,37.9c9.7,7.2,20.6,10.2,32.5,8.5c12.4-1.7,22.2-8,29.9-17.7
		C513.5,1090.9,517,1078.8,517,1065.5z"/>
	<path d="M891.1,1242.5c-2.2-0.4-4.4-0.7-6.6-1.1c-15.1-2.9-28.1-10-39.4-20.4c-4.5-4.2-8.7-8.7-11.9-13.9c-2-3.3-3.1-7.2-2.6-11.2
		c0.5-3.7,1.8-7.1,4.8-9.7c6.4-5.6,17.3-5.5,23,1.7c2.4,3,4.3,6.2,7,9c7,7.3,15.1,12.7,25.2,14.4c10.5,1.8,20.5-0.1,29.7-5.6
		c14.1-8.4,22-21,25-36.9c0.7-3.9,1-7.8,1-11.7c0-7.1,0-14.2,0-21.4c0-0.4,0-0.9,0-1.5c-2.3,1.2-4.5,2.3-6.7,3.4
		c-8.8,4.2-17.7,8.1-27.2,10.6c-14.9,3.9-29.3,2.1-43.3-3.8c-20-8.4-33.6-23.2-42.4-42.8c-6.1-13.6-8.3-28-7.2-42.8
		c1.5-20.7,9.2-38.7,23.3-53.9c11.2-12,24.9-19.9,41.1-23.1c13.2-2.7,26.1-1.3,38.6,3.6c7.2,2.8,14.1,6.1,20.7,10
		c0.3,0.2,0.7,0.4,1.1,0.6c0.4-3.3,2.6-5.4,4.6-7.6c3.5-3.8,7.6-6.4,12.5-8.1c7.9-2.8,15.6-6.3,23.4-9.4c8.8-3.5,17.6-7,26.7-9.6
		c1.6-0.5,3.3-0.9,5.1-0.9c0.4,0,0.8,0,1,0.4c0.2,0.4-0.1,0.8-0.3,1.1c-0.9,1.2-2.1,2.1-3.2,3c-4.3,3.3-8.9,6.1-13.4,9.1
		c-7.8,5.2-15.2,11-21.8,17.8c-0.4,0.5-0.8,1-1.2,1.5c-1,1.1-1.4,2.4-1.4,4c0,53.2,0,106.4,0.1,159.6c0,14.5-3.3,28.1-9.5,41.1
		c-1.3,2.8-2.9,5.5-4.4,8.3c-3.1,5.6-7.1,10.4-12.1,14.4c-9.4,7.6-19.6,13.9-31,18.1c-5.4,2-10.9,3.3-16.7,3.8c-0.3,0-0.6,0-0.8,0.2
		C898.3,1242.5,894.7,1242.5,891.1,1242.5z M850,1065.4c0,3.9,0.3,7.8,1,11.6c2.4,12.6,8.1,23.5,18.1,31.7
		c11.2,9.3,24.1,12.9,38.4,9.6c13.2-3.1,23.2-11,30.3-22.4c7.6-12.2,9.9-25.5,7.7-39.6c-2.4-15.4-9.8-27.9-22.7-36.9
		c-10.2-7-21.4-9.5-33.5-7.1c-11.9,2.4-21.3,8.9-28.5,18.5C853.3,1041.1,850.1,1052.8,850,1065.4z"/>
	<path d="M762.7,1065.4c0,23.2,0,46.4,0,69.6c0,8.2-6.9,14.9-15.1,15.2c-8.1,0.3-14.8-6.3-15.7-12.8c-0.2-1.1-0.2-2.2-0.2-3.3
		c0-15.4-0.1-30.7,0-46.1c0.2-31,0-61.9,0.1-92.9c0-7.6,7-14.5,14.7-14.8c8.8-0.3,15.4,6.4,16.2,13.5c0.1,0.7,0.1,1.4,0.1,2
		C762.7,1019,762.7,1042.2,762.7,1065.4z"/>
	<path d="M598.8,1065.2c0-23,0-46.1,0-69.1c0-7.9,5.4-14.4,13.2-15.5c5.3-0.8,10,0.9,13.8,4.9c2.7,2.9,4,6.2,4,10.2
		c0,30.4-0.1,60.9,0,91.3c0.1,15.6,0.1,31.1,0,46.7c0,6.2-2.3,11.7-8.1,14.8c-11.3,6-22.9-2.9-22.9-13.5c0.1-21.3,0-42.6,0-64
		C598.8,1068.9,598.8,1067.1,598.8,1065.2z"/>
	<path d="M724.5,1021.8c-23.5-17.2-66.3-16-87.3,2c-0.3-0.3-0.2-0.7-0.2-1c0-9.4,0-18.9,0-28.3c0-0.9,0.3-1.2,1-1.6
		c10.1-4.7,20.7-7.4,31.8-8.6c11-1.2,22-0.8,32.9,1.2c7.2,1.3,14.2,3.4,21,6.3c0.5,0.2,0.9,0.4,0.9,1.2c0,9.5,0,19,0,28.6
		C724.5,1021.5,724.5,1021.6,724.5,1021.8z"/>
	<path d="M598.8,915.5c0-8.4,6.8-15.1,15.4-15.1c8.8,0,15.6,6.5,15.7,14.9c0.1,8.7-6.9,15.6-15,15.9
		C606,931.5,598.7,924,598.8,915.5z"/>
	<path d="M731.6,915.4c0-8.3,7-15,15.5-15c9,0,15.9,7.3,15.7,15.4c-0.2,8.6-7,15.4-15.9,15.4C738.5,931.2,731.6,924.1,731.6,915.4z"
		/>
	<path d="M488.5,1073.2c8.4-0.3,15.8,6.9,15.6,15.2c-0.2,8.6-6.9,15.4-15.7,15.5c-8.4,0.1-15.4-7-15.4-15.7
		C473,1079.8,479.8,1073.2,488.5,1073.2z"/>
	<path d="M863,1089c-0.7-7.5,5.8-14.9,13.4-15.7c10.5-1.1,16.9,6.6,17.6,12.9c1.2,10.2-6.5,17.3-14.1,17.9
		C870.3,1104.6,863.1,1097.1,863,1089z"/>
</g>
</svg>
