<svg id="404"  data-name="404" xmlns="http://www.w3.org/2000/svg" viewBox="0 0 667.9303 342.5032"><title>grig logo-beta</title>
<path class="leftg" d="M143.48,362.5l-11.0354.1838c-1.891-.2789-3.7878-.5233-5.6721-.8416a78.6454,78.6454,0,0,1-25.4625-9.488,103.6424,103.6424,0,0,1-23.0529-17.0753,40.7624,40.7624,0,0,1-5.7054-8.1238,100.2665,100.2665,0,0,1-13.441-35.77,75.5509,75.5509,0,0,1-1.035-11.9326q-.0263-81.0586.0156-162.1173a6.1475,6.1475,0,0,0-1.48-4.1576c-3.4225-4.1183-7.6028-7.4117-11.6748-10.8293C38.34,96.8115,30.9823,92.3669,23.85,87.594A42.0474,42.0474,0,0,1,17.9585,82.95a5.6791,5.6791,0,0,1-1.0231-1.27c-.431-.76-.2515-1.2159.6752-1.2726a13.522,13.522,0,0,1,4.37.6372,220.81,220.81,0,0,1,23.9316,8.4326c8.7067,3.4712,17.3661,7.0611,26.0475,10.5958.5852.2383,1.5669.5546,2.1709.74,6.16,1.8872,10.4394,6.2666,14.2782,11.2151a6.7122,6.7122,0,0,1,1.5738,3.9687,3.3079,3.3079,0,0,0,1.49-.7206c9.0754-5.2876,18.4981-9.8107,28.698-12.4692,16.6744-4.346,32.7773-2.4,48.1414,5.1606,22.5113,11.078,36.8037,29.29,43.32,53.1564,7.9948,29.2827,2.7573,56.4749-16.1141,80.4932-12.059,15.3479-28.0328,24.5805-47.3362,27.8659-11.7978,2.0079-23.2219.4705-34.3962-3.6511a216.3173,216.3173,0,0,1-24.9431-11.0747c-.2051-.1067-.415-.204-.7573-.3717-.0238.5263-.0595.9422-.059,1.3582.01,8.0393-.1226,16.0822.0707,24.1172.3255,13.5335,4.6734,25.6775,13.6678,35.8679a46.75,46.75,0,0,0,23.4,14.7569c16.627,4.3684,30.9-.5822,43.2346-12.819a45.0354,45.0354,0,0,0,5.8767-7.5c5.5106-8.4584,14.4713-9.3748,21.3686-5.9716,6.621,3.2669,9.5566,11.32,7.3932,18.3908-1.4991,4.9-4.5607,8.6306-7.7863,12.2989a81.219,81.219,0,0,1-40.2056,25.4739,70.6905,70.6905,0,0,1-11.1738,2.1A2.4856,2.4856,0,0,0,143.48,362.5Zm40.84-176.2792a55.6574,55.6574,0,0,0-1.012-11.6906c-2.4871-12.8765-8.3019-23.8815-18.6407-32.1627-11.5062-9.2164-24.5615-12.5066-38.9213-8.8035-12.7857,3.2972-22.407,11.1739-29.3125,22.3044-7.1118,11.4632-9.526,24.0432-7.9433,37.36,1.8579,15.633,8.8316,28.4794,21.5615,37.9389,9.6655,7.1824,20.5542,10.2106,32.5266,8.5274,12.3563-1.7372,22.22-8.0036,29.89-17.668C180.7611,211.5769,184.281,199.4482,184.3193,186.2208Z" transform="translate(-16.7129 -21.1055)"/>
<path class="rightg" d="M569.09,362.5494l-6.2326,1.0592c-3.7416-.8554-7.5547-1.3374-11.3208-2.0643-15.1289-2.92-28.1142-9.9991-39.3816-20.3788a65.119,65.119,0,0,1-11.8846-13.91,17.2446,17.2446,0,0,1-2.5792-11.2339,14.8305,14.8305,0,0,1,4.7622-9.6714c6.3648-5.5673,17.2791-5.4545,22.99,1.7021,2.3616,2.9595,4.33,6.2122,6.9673,8.9676,6.9774,7.2887,15.1343,12.6565,25.164,14.3851a42.482,42.482,0,0,0,29.7365-5.6386c14.3023-8.545,22.27-21.4227,25.1976-37.6995a55.2524,55.2524,0,0,0,.8056-10.0044c-.0294-7.4046-.01-14.8094-.01-22.2142v-1.4608c-2.3264,1.1628-4.513,2.29-6.7289,3.3572-8.787,4.23-17.7111,8.1313-27.18,10.5926-14.85,3.86-29.2883,2.1309-43.2553-3.77-19.9549-8.4307-33.6366-23.1988-42.3592-42.7952a87.912,87.912,0,0,1-7.2307-42.8034c1.5092-20.67,9.2039-38.7487,23.3006-53.9268a75.3509,75.3509,0,0,1,41.0915-23.1492,68.0329,68.0329,0,0,1,38.6079,3.566,136.6536,136.6536,0,0,1,20.665,10.0215c.3384.2006.6863.3852,1.0849.6081.4263-3.26,2.5636-5.4018,4.5874-7.5932a30.5284,30.5284,0,0,1,12.4892-8.13c7.9224-2.836,15.6126-6.3152,23.431-9.4479a276.4207,276.4207,0,0,1,26.6756-9.6378,16.2378,16.2378,0,0,1,5.0579-.8767c.3978.0145.8483-.0316,1.04.4176a1.0948,1.0948,0,0,1-.2957,1.105,18.1884,18.1884,0,0,1-3.5262,3.2515c-2.7419,2.12-5.6027,4.077-8.5343,5.9253a142.1206,142.1206,0,0,0-26.3333,20.7437c-.4454.457-.84.9646-1.2485,1.4565a5.8489,5.8489,0,0,0-1.3674,3.9559q.0523,79.7934.0577,159.5866a93.9929,93.9929,0,0,1-9.533,41.0677c-1.3413,2.814-2.8531,5.5346-4.3751,8.254a48.7586,48.7586,0,0,1-12.0676,14.4262,111.4625,111.4625,0,0,1-31.0047,18.1134,62.96,62.96,0,0,1-16.6621,3.7628A1.8558,1.8558,0,0,0,569.09,362.5494ZM517.3343,186.11a58.52,58.52,0,0,0,1.0217,11.5691c2.4259,12.6145,8.0565,23.4654,18.05,31.7349,11.2438,9.304,24.1273,12.8693,38.4323,9.5649,13.2366-3.0576,23.2-11.0114,30.3191-22.4292,7.5834-12.1634,9.9081-25.512,7.7485-39.5914-2.3675-15.4349-9.7527-27.9283-22.71-36.8555-10.1513-6.9938-21.3761-9.5174-33.5121-7.0992-11.9056,2.3723-21.28,8.876-28.455,18.5228C520.6151,161.7622,517.3883,173.4565,517.3343,186.11Z" transform="translate(-16.7129 -21.1055)"/>
<path class="righti" d="M430.3043,186.0358q0,34.2423,0,68.4847a16.3345,16.3345,0,0,1-9.2113,14.8759c-10.4621,4.8782-20.4468-3.2568-21.63-11.2952a23.1815,23.1815,0,0,1-.23-3.3444c-.0145-15.3574-.0986-30.7154.0089-46.0721.2148-30.7218.0305-61.4436.0992-92.1652.0175-7.81,6.3888-14.9823,14.1841-15.4558a15.7079,15.7079,0,0,1,16.6683,13.4708,18.18,18.18,0,0,1,.1068,2.0329Q430.3079,151.3016,430.3043,186.0358Z" transform="translate(-16.7129 -21.1055)"/>
<path class="lefti" d="M266.3043,185.8536q0-34.5552,0-69.11a15.5306,15.5306,0,0,1,27.4963-10.0994,14.6935,14.6935,0,0,1,3.4706,9.6737c-.0135,30.399-.0951,60.7984.0293,91.1969.0636,15.5545.142,31.11.0207,46.6625-.0483,6.199-2.3314,11.6625-8.1294,14.7652-11.283,6.0379-22.9411-2.8817-22.9078-13.4984.0669-21.3168.02-42.634.02-63.951Z" transform="translate(-16.7129 -21.1055)"/>
<path class="bridge" d="M391.7591,142.4563C368.2923,125.3,325.45,126.4649,304.4266,144.41c-.3069-.2968-.1539-.6754-.1542-1.0055-.01-9.4393.0044-18.8787-.0293-28.3179a1.4927,1.4927,0,0,1,1.0352-1.5971,101.49,101.49,0,0,1,31.7782-8.5828,113.3684,113.3684,0,0,1,32.9459,1.2222,100.3129,100.3129,0,0,1,20.9548,6.2808c.5332.2258.93.4223.927,1.1681-.0328,9.5192-.0247,19.0385-.03,28.5578A1.5714,1.5714,0,0,1,391.7591,142.4563Z" transform="translate(-16.7129 -21.1055)"/>
<path class="lefttopdot" d="M266.1043,36.23A15.2,15.2,0,0,1,281.4735,21.118c8.77-.0076,15.6044,6.5452,15.7338,14.89a15.5532,15.5532,0,1,1-31.103.2224Z" transform="translate(-16.7129 -21.1055)"/>
<path class="righttopdot" d="M398.9481,36.13a15.2961,15.2961,0,0,1,15.4775-15.0246c8.9621-.0281,15.8741,7.3428,15.6511,15.3546a15.5652,15.5652,0,0,1-31.1286-.33Z" transform="translate(-16.7129 -21.1055)"/>
<path class="leftdot" d="M155.8216,193.9207c8.3812-.2632,15.8083,6.9183,15.5746,15.2442a15.5463,15.5463,0,1,1-31.0917-.2211C140.28,200.52,147.1028,193.9145,155.8216,193.9207Z" transform="translate(-16.7129 -21.1055)"/>
<path class="rightdot" d="M530.2853,209.6517c-.6613-7.5056,5.8053-14.8947,13.4049-15.716,10.4514-1.13,16.8842,6.6234,17.615,12.851a15.6007,15.6007,0,1,1-31.02,2.865Z" transform="translate(-16.7129 -21.1055)"/></svg>